<svg width="24" height="33" viewBox="0 0 24 33" fill="none" xmlns="http://www.w3.org/2000/svg">
<path d="M7.7207 27.0762H5.49414L5.48242 26.4902H7.38086C7.76367 26.4902 8.08203 26.4492 8.33594 26.3672C8.59375 26.2812 8.78711 26.1543 8.91602 25.9863C9.04883 25.8184 9.11523 25.6113 9.11523 25.3652C9.11523 25.1777 9.07617 25.0137 8.99805 24.873C8.92383 24.7324 8.81055 24.6172 8.6582 24.5273C8.50977 24.4375 8.32227 24.3711 8.0957 24.3281C7.87305 24.2812 7.61328 24.2578 7.31641 24.2578H5.69336V30H4.99609V23.6602H7.31641C7.70312 23.6602 8.04883 23.6953 8.35352 23.7656C8.66211 23.832 8.92578 23.9336 9.14453 24.0703C9.36328 24.207 9.5293 24.3828 9.64258 24.5977C9.75977 24.8086 9.81836 25.0586 9.81836 25.3477C9.81836 25.543 9.78125 25.7266 9.70703 25.8984C9.63281 26.0664 9.52344 26.2188 9.37891 26.3555C9.23828 26.4883 9.06445 26.5977 8.85742 26.6836C8.65039 26.7656 8.41211 26.8164 8.14258 26.8359L7.7207 27.0762ZM7.7207 30H5.27734L5.54688 29.4023H7.7207C8.07227 29.4023 8.37109 29.3574 8.61719 29.2676C8.86328 29.1777 9.04883 29.0449 9.17383 28.8691C9.30273 28.6934 9.36719 28.4805 9.36719 28.2305C9.36719 27.9961 9.30273 27.793 9.17383 27.6211C9.04883 27.4492 8.86328 27.3164 8.61719 27.2227C8.37109 27.125 8.07227 27.0762 7.7207 27.0762H6.10352L6.11523 26.4902H8.19531L8.49414 26.7129C8.81445 26.7402 9.0918 26.8262 9.32617 26.9707C9.56055 27.1152 9.74219 27.2988 9.87109 27.5215C10 27.7402 10.0645 27.9805 10.0645 28.2422C10.0645 28.5312 10.0098 28.7871 9.90039 29.0098C9.79102 29.2285 9.63281 29.4121 9.42578 29.5605C9.22266 29.7051 8.97656 29.8145 8.6875 29.8887C8.39844 29.9629 8.07617 30 7.7207 30ZM13.9727 29.5137C14.2695 29.5137 14.5469 29.459 14.8047 29.3496C15.0664 29.2363 15.2812 29.0703 15.4492 28.8516C15.6211 28.6289 15.7188 28.3574 15.7422 28.0371H16.4102C16.3906 28.4395 16.2676 28.7988 16.041 29.1152C15.8184 29.4277 15.5254 29.6738 15.1621 29.8535C14.8027 30.0293 14.4062 30.1172 13.9727 30.1172C13.5312 30.1172 13.1406 30.0371 12.8008 29.877C12.4648 29.7168 12.1836 29.4941 11.957 29.209C11.7305 28.9199 11.5586 28.584 11.4414 28.2012C11.3281 27.8145 11.2715 27.3984 11.2715 26.9531V26.707C11.2715 26.2617 11.3281 25.8477 11.4414 25.4648C11.5586 25.0781 11.7305 24.7422 11.957 24.457C12.1836 24.168 12.4648 23.9434 12.8008 23.7832C13.1367 23.623 13.5254 23.543 13.9668 23.543C14.4199 23.543 14.8262 23.6348 15.1855 23.8184C15.5488 24.002 15.8379 24.2617 16.0527 24.5977C16.2715 24.9336 16.3906 25.332 16.4102 25.793H15.7422C15.7227 25.4531 15.6328 25.1602 15.4727 24.9141C15.3125 24.668 15.1016 24.4785 14.8398 24.3457C14.5781 24.2129 14.2871 24.1465 13.9668 24.1465C13.6074 24.1465 13.3008 24.2168 13.0469 24.3574C12.793 24.4941 12.5859 24.6836 12.4258 24.9258C12.2695 25.1641 12.1543 25.4375 12.0801 25.7461C12.0059 26.0508 11.9688 26.3711 11.9688 26.707V26.9531C11.9688 27.293 12.0039 27.6172 12.0742 27.9258C12.1484 28.2305 12.2637 28.502 12.4199 28.7402C12.5801 28.9785 12.7871 29.168 13.041 29.3086C13.2988 29.4453 13.6094 29.5137 13.9727 29.5137ZM18.6016 23.6602V30H17.9043V23.6602H18.6016ZM17.7812 21.8262C17.7812 21.6934 17.8223 21.582 17.9043 21.4922C17.9902 21.3984 18.1074 21.3516 18.2559 21.3516C18.4043 21.3516 18.5215 21.3984 18.6074 21.4922C18.6973 21.582 18.7422 21.6934 18.7422 21.8262C18.7422 21.9551 18.6973 22.0664 18.6074 22.1602C18.5215 22.25 18.4043 22.2949 18.2559 22.2949C18.1074 22.2949 17.9902 22.25 17.9043 22.1602C17.8223 22.0664 17.7812 21.9551 17.7812 21.8262Z" fill="white"/>
<rect width="24" height="2" rx="1" fill="white"/>
<rect y="6" width="24" height="2" rx="1" fill="white"/>
<rect y="12" width="18" height="2" rx="1" fill="white"/>
</svg>
