<svg width="33" height="34" viewBox="0 0 33 34" fill="none" xmlns="http://www.w3.org/2000/svg">
<path d="M5.0332 21.9004H5.63672C5.63672 22.1934 5.58398 22.4375 5.47852 22.6328C5.37695 22.8281 5.23242 22.9863 5.04492 23.1074C4.85742 23.2285 4.63672 23.3242 4.38281 23.3945C4.13281 23.4609 3.85938 23.5176 3.5625 23.5645C3.19922 23.6191 2.86523 23.7383 2.56055 23.9219C2.25977 24.1055 2.00195 24.3574 1.78711 24.6777C1.57227 24.9941 1.41016 25.3867 1.30078 25.8555C1.19531 26.3203 1.15234 26.8652 1.17188 27.4902V28.0352H0.568359V27.4902C0.568359 26.8027 0.634766 26.1934 0.767578 25.6621C0.904297 25.127 1.09766 24.6699 1.34766 24.291C1.60156 23.9121 1.90234 23.6113 2.25 23.3887C2.60156 23.1621 2.99023 23.0137 3.41602 22.9434C3.81445 22.8809 4.13086 22.8047 4.36523 22.7148C4.60352 22.625 4.77344 22.5137 4.875 22.3809C4.98047 22.248 5.0332 22.0879 5.0332 21.9004ZM3.47461 25.0762C3.88867 25.0762 4.26172 25.1465 4.59375 25.2871C4.92578 25.4277 5.20898 25.627 5.44336 25.8848C5.68164 26.1387 5.86328 26.4395 5.98828 26.7871C6.11719 27.1309 6.18164 27.5078 6.18164 27.918V28.1055C6.18164 28.543 6.11523 28.9453 5.98242 29.3125C5.85352 29.6797 5.66602 29.998 5.41992 30.2676C5.17773 30.5371 4.88281 30.7461 4.53516 30.8945C4.19141 31.043 3.80664 31.1172 3.38086 31.1172C2.95117 31.1172 2.56445 31.043 2.2207 30.8945C1.87695 30.7461 1.58203 30.5371 1.33594 30.2676C1.08984 29.998 0.900391 29.6797 0.767578 29.3125C0.634766 28.9453 0.568359 28.543 0.568359 28.1055V27.918C0.568359 27.8047 0.580078 27.6934 0.603516 27.584C0.630859 27.4746 0.664062 27.3672 0.703125 27.2617C0.742188 27.1523 0.78125 27.0449 0.820312 26.9395C0.957031 26.584 1.15039 26.2676 1.40039 25.9902C1.65039 25.709 1.94922 25.4863 2.29688 25.3223C2.64844 25.1582 3.04102 25.0762 3.47461 25.0762ZM3.36914 25.6738C2.91211 25.6738 2.52734 25.7793 2.21484 25.9902C1.90625 26.1973 1.67188 26.4727 1.51172 26.8164C1.35156 27.1562 1.27148 27.5234 1.27148 27.918V28.1055C1.27148 28.4297 1.31641 28.7363 1.40625 29.0254C1.49609 29.3145 1.62891 29.5723 1.80469 29.7988C1.98438 30.0215 2.20508 30.1973 2.4668 30.3262C2.72852 30.4551 3.0332 30.5195 3.38086 30.5195C3.72461 30.5195 4.02734 30.4551 4.28906 30.3262C4.55078 30.1973 4.76953 30.0215 4.94531 29.7988C5.12109 29.5723 5.25391 29.3145 5.34375 29.0254C5.43359 28.7363 5.47852 28.4297 5.47852 28.1055V27.918C5.47852 27.6211 5.43359 27.3379 5.34375 27.0684C5.25391 26.7988 5.11914 26.5605 4.93945 26.3535C4.76367 26.1426 4.54297 25.9766 4.27734 25.8555C4.01562 25.7344 3.71289 25.6738 3.36914 25.6738ZM11.3848 29.8633V26.5938C11.3848 26.293 11.3223 26.0332 11.1973 25.8145C11.0723 25.5957 10.8887 25.4277 10.6465 25.3105C10.4043 25.1934 10.1055 25.1348 9.75 25.1348C9.42188 25.1348 9.12891 25.1934 8.87109 25.3105C8.61719 25.4238 8.41602 25.5781 8.26758 25.7734C8.12305 25.9648 8.05078 26.1777 8.05078 26.4121L7.34766 26.4062C7.34766 26.168 7.40625 25.9375 7.52344 25.7148C7.64062 25.4922 7.80664 25.293 8.02148 25.1172C8.23633 24.9414 8.49219 24.8027 8.78906 24.7012C9.08984 24.5957 9.41992 24.543 9.7793 24.543C10.2324 24.543 10.6309 24.6191 10.9746 24.7715C11.3223 24.9238 11.5938 25.1523 11.7891 25.457C11.9844 25.7617 12.082 26.1445 12.082 26.6055V29.6699C12.082 29.8887 12.0977 30.1152 12.1289 30.3496C12.1641 30.584 12.2129 30.7773 12.2754 30.9297V31H11.5312C11.4844 30.8594 11.4473 30.6836 11.4199 30.4727C11.3965 30.2578 11.3848 30.0547 11.3848 29.8633ZM11.5488 27.3086L11.5605 27.8477H10.1836C9.82422 27.8477 9.50195 27.8809 9.2168 27.9473C8.93555 28.0098 8.69727 28.1035 8.50195 28.2285C8.30664 28.3496 8.15625 28.4961 8.05078 28.668C7.94922 28.8398 7.89844 29.0352 7.89844 29.2539C7.89844 29.4805 7.95508 29.6875 8.06836 29.875C8.18555 30.0625 8.34961 30.2129 8.56055 30.3262C8.77539 30.4355 9.0293 30.4902 9.32227 30.4902C9.71289 30.4902 10.0566 30.418 10.3535 30.2734C10.6543 30.1289 10.9023 29.9395 11.0977 29.7051C11.293 29.4707 11.4238 29.2148 11.4902 28.9375L11.7949 29.3418C11.7441 29.5371 11.6504 29.7383 11.5137 29.9453C11.3809 30.1484 11.207 30.3398 10.9922 30.5195C10.7773 30.6953 10.5234 30.8398 10.2305 30.9531C9.94141 31.0625 9.61328 31.1172 9.24609 31.1172C8.83203 31.1172 8.4707 31.0391 8.16211 30.8828C7.85742 30.7266 7.61914 30.5137 7.44727 30.2441C7.2793 29.9707 7.19531 29.6621 7.19531 29.3184C7.19531 29.0059 7.26172 28.7266 7.39453 28.4805C7.52734 28.2305 7.71875 28.0195 7.96875 27.8477C8.22266 27.6719 8.52734 27.5391 8.88281 27.4492C9.24219 27.3555 9.64453 27.3086 10.0898 27.3086H11.5488ZM18.4688 24.6602V31H17.7715V24.6602H18.4688ZM18.2285 27.5371V28.1406C18.0488 28.2266 17.8418 28.3086 17.6074 28.3867C17.377 28.4648 17.1328 28.5293 16.875 28.5801C16.6211 28.627 16.3672 28.6504 16.1133 28.6504C15.5898 28.6504 15.1465 28.5742 14.7832 28.4219C14.4238 28.2695 14.1523 28.0195 13.9688 27.6719C13.7852 27.3203 13.6934 26.8516 13.6934 26.2656V24.6543H14.3906V26.2656C14.3906 26.7148 14.4531 27.0703 14.5781 27.332C14.7031 27.5898 14.8926 27.7734 15.1465 27.8828C15.4004 27.9922 15.7227 28.0469 16.1133 28.0469C16.3828 28.0391 16.6504 28.0117 16.916 27.9648C17.1816 27.9141 17.4277 27.8516 17.6543 27.7773C17.8848 27.6992 18.0762 27.6191 18.2285 27.5371ZM21.0879 29.8633L24.5156 24.6602H25.2188V31H24.5156V25.7969L21.0879 31H20.3965V24.6602H21.0879V29.8633ZM29.9004 28.0762H27.6738L27.6621 27.4902H29.5605C29.9434 27.4902 30.2617 27.4492 30.5156 27.3672C30.7734 27.2812 30.9668 27.1543 31.0957 26.9863C31.2285 26.8184 31.2949 26.6113 31.2949 26.3652C31.2949 26.1777 31.2559 26.0137 31.1777 25.873C31.1035 25.7324 30.9902 25.6172 30.8379 25.5273C30.6895 25.4375 30.502 25.3711 30.2754 25.3281C30.0527 25.2812 29.793 25.2578 29.4961 25.2578H27.873V31H27.1758V24.6602H29.4961C29.8828 24.6602 30.2285 24.6953 30.5332 24.7656C30.8418 24.832 31.1055 24.9336 31.3242 25.0703C31.543 25.207 31.709 25.3828 31.8223 25.5977C31.9395 25.8086 31.998 26.0586 31.998 26.3477C31.998 26.543 31.9609 26.7266 31.8867 26.8984C31.8125 27.0664 31.7031 27.2188 31.5586 27.3555C31.418 27.4883 31.2441 27.5977 31.0371 27.6836C30.8301 27.7656 30.5918 27.8164 30.3223 27.8359L29.9004 28.0762ZM29.9004 31H27.457L27.7266 30.4023H29.9004C30.252 30.4023 30.5508 30.3574 30.7969 30.2676C31.043 30.1777 31.2285 30.0449 31.3535 29.8691C31.4824 29.6934 31.5469 29.4805 31.5469 29.2305C31.5469 28.9961 31.4824 28.793 31.3535 28.6211C31.2285 28.4492 31.043 28.3164 30.7969 28.2227C30.5508 28.125 30.252 28.0762 29.9004 28.0762H28.2832L28.2949 27.4902H30.375L30.6738 27.7129C30.9941 27.7402 31.2715 27.8262 31.5059 27.9707C31.7402 28.1152 31.9219 28.2988 32.0508 28.5215C32.1797 28.7402 32.2441 28.9805 32.2441 29.2422C32.2441 29.5312 32.1895 29.7871 32.0801 30.0098C31.9707 30.2285 31.8125 30.4121 31.6055 30.5605C31.4023 30.7051 31.1562 30.8145 30.8672 30.8887C30.5781 30.9629 30.2559 31 29.9004 31Z" fill="white"/>
<path d="M4 7.1L11.7004 13.8456C12.4547 14.5063 13.5818 14.5063 14.3361 13.8456L29 1" stroke="white" stroke-width="2" stroke-linecap="round" stroke-linejoin="round"/>
</svg>
