<svg width="71" height="33" viewBox="0 0 71 33" fill="none" xmlns="http://www.w3.org/2000/svg">
<path d="M1.19531 23.6602L2.90625 26.2207L4.62305 23.6602H5.45508L3.30469 26.7656L5.54297 30H4.72266L2.91211 27.3223L1.10742 30H0.287109L2.52539 26.7656L0.375 23.6602H1.19531ZM6.26367 26.9297V26.7363C6.26367 26.2754 6.33008 25.8496 6.46289 25.459C6.5957 25.0684 6.78516 24.7305 7.03125 24.4453C7.28125 24.1602 7.58008 23.9395 7.92773 23.7832C8.27539 23.623 8.66211 23.543 9.08789 23.543C9.51758 23.543 9.90625 23.623 10.2539 23.7832C10.6016 23.9395 10.9004 24.1602 11.1504 24.4453C11.4004 24.7305 11.5918 25.0684 11.7246 25.459C11.8574 25.8496 11.9238 26.2754 11.9238 26.7363V26.9297C11.9238 27.3906 11.8574 27.8164 11.7246 28.207C11.5918 28.5938 11.4004 28.9297 11.1504 29.2148C10.9043 29.5 10.6074 29.7227 10.2598 29.8828C9.91211 30.0391 9.52539 30.1172 9.09961 30.1172C8.66992 30.1172 8.28125 30.0391 7.93359 29.8828C7.58594 29.7227 7.28711 29.5 7.03711 29.2148C6.78711 28.9297 6.5957 28.5938 6.46289 28.207C6.33008 27.8164 6.26367 27.3906 6.26367 26.9297ZM6.96094 26.7363V26.9297C6.96094 27.2773 7.00781 27.6074 7.10156 27.9199C7.19531 28.2285 7.33203 28.5039 7.51172 28.7461C7.69141 28.9844 7.91406 29.1719 8.17969 29.3086C8.44531 29.4453 8.75195 29.5137 9.09961 29.5137C9.44336 29.5137 9.74609 29.4453 10.0078 29.3086C10.2734 29.1719 10.4961 28.9844 10.6758 28.7461C10.8555 28.5039 10.9902 28.2285 11.0801 27.9199C11.1738 27.6074 11.2207 27.2773 11.2207 26.9297V26.7363C11.2207 26.3926 11.1738 26.0664 11.0801 25.7578C10.9902 25.4492 10.8535 25.1738 10.6699 24.9316C10.4902 24.6895 10.2676 24.498 10.002 24.3574C9.73633 24.2168 9.43164 24.1465 9.08789 24.1465C8.74414 24.1465 8.43945 24.2168 8.17383 24.3574C7.91211 24.498 7.68945 24.6895 7.50586 24.9316C7.32617 25.1738 7.18945 25.4492 7.0957 25.7578C7.00586 26.0664 6.96094 26.3926 6.96094 26.7363ZM17.8828 23.6602V30H17.1855V23.6602H17.8828ZM17.6426 26.5371V27.1406C17.4629 27.2266 17.2559 27.3086 17.0215 27.3867C16.791 27.4648 16.5469 27.5293 16.2891 27.5801C16.0352 27.627 15.7812 27.6504 15.5273 27.6504C15.0039 27.6504 14.5605 27.5742 14.1973 27.4219C13.8379 27.2695 13.5664 27.0195 13.3828 26.6719C13.1992 26.3203 13.1074 25.8516 13.1074 25.2656V23.6543H13.8047V25.2656C13.8047 25.7148 13.8672 26.0703 13.9922 26.332C14.1172 26.5898 14.3066 26.7734 14.5605 26.8828C14.8145 26.9922 15.1367 27.0469 15.5273 27.0469C15.7969 27.0391 16.0645 27.0117 16.3301 26.9648C16.5957 26.9141 16.8418 26.8516 17.0684 26.7773C17.2988 26.6992 17.4902 26.6191 17.6426 26.5371ZM21.6445 29.3672L23.6191 23.6602H24.375L21.6914 31.0195C21.6367 31.1641 21.5664 31.3242 21.4805 31.5C21.3984 31.6758 21.2891 31.8438 21.1523 32.0039C21.0195 32.168 20.8516 32.3008 20.6484 32.4023C20.4492 32.5078 20.2051 32.5605 19.916 32.5605C19.8418 32.5605 19.7461 32.5508 19.6289 32.5312C19.5156 32.5156 19.4336 32.5 19.3828 32.4844L19.377 31.8926C19.4199 31.9043 19.4824 31.9141 19.5645 31.9219C19.6465 31.9297 19.7031 31.9336 19.7344 31.9336C19.9883 31.9336 20.2012 31.8906 20.373 31.8047C20.5488 31.7188 20.6953 31.5898 20.8125 31.418C20.9297 31.25 21.0332 31.0391 21.123 30.7852L21.6445 29.3672ZM19.7988 23.6602L21.8203 29.1035L22.0078 29.8359L21.498 30.123L19.0371 23.6602H19.7988ZM32.3496 23.6602V24.2695H29.1387V30H28.4414V23.6602H32.3496ZM37.5293 23.6602V24.2695H34.3184V23.6602H37.5293ZM38.0977 23.6602V30H37.4004V23.6602H38.0977ZM34.1309 23.6602H34.8281L34.6875 26.6309C34.6641 27.1113 34.625 27.5371 34.5703 27.9082C34.5195 28.2793 34.4492 28.5977 34.3594 28.8633C34.2695 29.125 34.1543 29.3398 34.0137 29.5078C33.877 29.6758 33.7109 29.8008 33.5156 29.8828C33.3203 29.9609 33.0918 30 32.8301 30H32.5664V29.3672L32.7832 29.3613C32.9512 29.3535 33.0977 29.3184 33.2227 29.2559C33.3516 29.1934 33.4609 29.0938 33.5508 28.957C33.6445 28.8203 33.7207 28.6406 33.7793 28.418C33.8418 28.1953 33.8906 27.9238 33.9258 27.6035C33.9648 27.2793 33.9941 26.8984 34.0137 26.4609L34.1309 23.6602ZM41.373 27.0938H42.1465L40.3887 30H39.6152L41.373 27.0938ZM42.1172 23.6602H44.6074V30H43.9102V24.2578H42.1172C41.7461 24.2578 41.4434 24.3203 41.209 24.4453C40.9785 24.5664 40.8086 24.7266 40.6992 24.9258C40.5938 25.125 40.541 25.3379 40.541 25.5645C40.541 25.7793 40.5879 25.9844 40.6816 26.1797C40.7793 26.375 40.9297 26.5352 41.1328 26.6602C41.3359 26.7812 41.5996 26.8418 41.9238 26.8418H44.1621V27.4453H41.9238C41.5918 27.4453 41.2969 27.3984 41.0391 27.3047C40.7812 27.2109 40.5625 27.0801 40.3828 26.9121C40.207 26.7402 40.0723 26.5391 39.9785 26.3086C39.8887 26.0742 39.8438 25.8223 39.8438 25.5527C39.8438 25.2793 39.8926 25.0293 39.9902 24.8027C40.0918 24.5723 40.2383 24.3711 40.4297 24.1992C40.625 24.0273 40.8633 23.8945 41.1445 23.8008C41.4297 23.707 41.7539 23.6602 42.1172 23.6602ZM50.8301 26.4961V27.0938H47.0684V26.4961H50.8301ZM47.25 23.6602V30H46.5527V23.6602H47.25ZM51.3691 23.6602V30H50.666V23.6602H51.3691ZM55.1367 29.3672L57.1113 23.6602H57.8672L55.1836 31.0195C55.1289 31.1641 55.0586 31.3242 54.9727 31.5C54.8906 31.6758 54.7812 31.8438 54.6445 32.0039C54.5117 32.168 54.3438 32.3008 54.1406 32.4023C53.9414 32.5078 53.6973 32.5605 53.4082 32.5605C53.334 32.5605 53.2383 32.5508 53.1211 32.5312C53.0078 32.5156 52.9258 32.5 52.875 32.4844L52.8691 31.8926C52.9121 31.9043 52.9746 31.9141 53.0566 31.9219C53.1387 31.9297 53.1953 31.9336 53.2266 31.9336C53.4805 31.9336 53.6934 31.8906 53.8652 31.8047C54.041 31.7188 54.1875 31.5898 54.3047 31.418C54.4219 31.25 54.5254 31.0391 54.6152 30.7852L55.1367 29.3672ZM53.291 23.6602L55.3125 29.1035L55.5 29.8359L54.9902 30.123L52.5293 23.6602H53.291ZM61.2012 23.6602V30H60.5039V23.6602H61.2012ZM63.5098 23.6602V24.2578H58.2773V23.6602H63.5098ZM65.4082 28.8633L68.8359 23.6602H69.5391V30H68.8359V24.7969L65.4082 30H64.7168V23.6602H65.4082V28.8633Z" fill="white"/>
<path d="M48.1095 5.136L49.7028 6.45335C49.9315 6.64246 50 6.84457 50 7C50 7.15543 49.9315 7.35754 49.7028 7.54665L48.1095 8.864C41.4395 14.3787 30.5605 14.3787 23.8905 8.864L22.2972 7.54665C22.0685 7.35754 22 7.15543 22 7C22 6.84457 22.0685 6.64246 22.2972 6.45335L23.8905 5.136C30.5605 -0.378667 41.4395 -0.378667 48.1095 5.136Z" stroke="white" stroke-width="2"/>
<circle cx="36" cy="7" r="4" stroke="white" stroke-width="2"/>
</svg>
